<?xml version="1.0" standalone="no"?>
<!DOCTYPE svg PUBLIC "-//W3C//DTD SVG 20010904//EN"
 "http://www.w3.org/TR/2001/REC-SVG-20010904/DTD/svg10.dtd">
<svg version="1.0" xmlns="http://www.w3.org/2000/svg"
 width="120.000000pt" height="120.000000pt" viewBox="0 0 120.000000 120.000000"
 preserveAspectRatio="xMidYMid meet">
<metadata>
Created by potrace 1.16, written by Peter Selinger 2001-2019
</metadata>
<g transform="translate(0.000000,120.000000) scale(0.044776,-0.044118)"
fill="#000000" stroke="none">
<path d="M397 2680 c-57 -36 -94 -90 -106 -155 -5 -28 -8 -52 -6 -54 8 -7 68
44 96 81 27 38 74 147 66 154 -2 2 -24 -9 -50 -26z"/>
<path d="M2216 2683 c12 -53 68 -145 108 -179 22 -19 43 -34 47 -34 12 0 -2
72 -23 117 -20 44 -59 83 -109 109 l-30 15 7 -28z"/>
<path d="M922 2542 l-403 -126 3 -346 c5 -393 10 -426 92 -595 122 -249 364
-456 608 -520 308 -81 742 228 880 625 44 128 49 175 55 503 3 176 2 322 -3
327 -9 8 -812 261 -823 259 -3 0 -187 -58 -409 -127z m828 -85 l325 -103 -1
-284 c-1 -310 -8 -366 -60 -496 -124 -312 -462 -574 -711 -551 -226 21 -495
236 -618 492 -74 155 -78 179 -82 530 l-4 311 368 115 c366 116 368 116 413
103 25 -8 191 -60 370 -117z"/>
<path d="M985 2431 l-340 -107 -3 -239 c-2 -142 2 -272 8 -319 39 -273 227
-523 482 -640 171 -79 298 -70 478 35 175 101 312 270 382 470 l33 94 0 300 0
300 -340 107 c-187 58 -344 107 -350 106 -5 0 -163 -48 -350 -107z m247 -222
c48 -13 68 -49 68 -122 0 -77 -38 -128 -114 -152 -16 -5 -13 -11 25 -43 24
-20 57 -49 74 -64 l30 -27 -60 -1 c-59 0 -61 1 -135 64 -48 41 -86 65 -105 68
-27 3 -30 7 -33 40 l-3 36 106 4 c123 4 138 13 133 83 l-3 40 -127 3 -128 3 0
-171 0 -170 -40 0 -40 0 0 193 c0 105 4 197 8 203 4 6 14 14 22 17 27 10 284
7 322 -4z m480 -370 c48 -13 68 -49 68 -122 0 -77 -38 -128 -114 -152 -16 -5
-13 -11 25 -43 24 -20 57 -49 74 -64 l30 -27 -60 -1 c-59 0 -61 1 -135 64 -48
41 -86 65 -105 68 -27 3 -30 7 -33 40 l-3 36 106 4 c123 4 138 13 133 83 l-3
40 -127 3 -128 3 0 -171 0 -170 -40 0 -40 0 0 193 c0 105 4 197 8 203 4 6 14
14 22 17 27 10 284 7 322 -4z"/>
<path d="M182 2586 c-22 -48 -33 -107 -26 -141 6 -34 44 -85 63 -85 5 0 15 31
22 70 11 61 10 75 -5 114 -23 60 -40 73 -54 42z"/>
<path d="M2429 2553 c-21 -44 -22 -51 -10 -117 6 -38 13 -72 15 -74 3 -2 13 1
24 7 29 15 55 88 47 131 -9 48 -32 100 -44 100 -5 0 -19 -21 -32 -47z"/>
<path d="M96 2397 c-16 -99 -11 -134 29 -174 19 -19 39 -32 45 -28 5 3 10 34
10 67 0 68 -25 134 -59 155 -18 12 -21 10 -25 -20z"/>
<path d="M2531 2409 c-13 -12 -29 -37 -37 -55 -17 -40 -19 -164 -3 -164 6 0
26 15 45 34 34 34 39 52 34 135 -1 19 -5 43 -9 53 -6 18 -8 18 -30 -3z"/>
<path d="M40 2190 c0 -86 31 -140 94 -163 18 -7 18 -3 13 53 -7 66 -25 108
-59 140 -36 33 -48 26 -48 -30z"/>
<path d="M2572 2220 c-34 -32 -54 -78 -60 -142 -4 -54 -3 -58 14 -51 63 23 94
77 94 163 0 56 -12 63 -48 30z"/>
<path d="M16 2013 c3 -27 13 -63 22 -82 16 -35 64 -71 95 -71 16 0 18 5 12 33
-12 57 -41 112 -74 140 -50 42 -64 37 -55 -20z"/>
<path d="M2599 2037 c-35 -23 -72 -87 -84 -144 -6 -29 -4 -33 15 -33 53 0 101
64 114 153 8 53 3 56 -45 24z"/>
<path d="M15 1838 c18 -83 77 -148 134 -148 20 0 22 3 16 28 -18 73 -89 152
-138 152 -16 0 -17 -5 -12 -32z"/>
<path d="M2583 1851 c-33 -21 -77 -87 -88 -133 -6 -25 -4 -28 16 -28 57 0 116
65 134 148 5 27 4 32 -12 32 -10 0 -32 -9 -50 -19z"/>
<path d="M42 1658 c28 -81 78 -128 136 -128 41 0 41 15 -1 75 -34 50 -86 85
-124 85 -20 0 -21 -2 -11 -32z"/>
<path d="M2550 1671 c-35 -18 -100 -101 -100 -127 0 -19 44 -18 86 2 33 16 70
66 85 117 7 24 5 27 -14 27 -12 0 -38 -8 -57 -19z"/>
<path d="M85 1509 c-9 -13 29 -73 66 -103 33 -28 89 -42 114 -29 14 8 11 15
-20 56 -20 26 -48 53 -63 61 -38 19 -90 27 -97 15z"/>
<path d="M2523 1510 c-46 -11 -79 -34 -113 -82 -34 -47 -32 -58 13 -58 56 0
139 70 149 124 4 23 -7 26 -49 16z"/>
<path d="M156 1342 c-11 -17 45 -81 89 -102 33 -16 55 -20 80 -16 19 4 35 10
35 14 0 37 -108 112 -161 112 -21 0 -40 -4 -43 -8z"/>
<path d="M2405 1336 c-35 -15 -105 -78 -105 -94 0 -17 57 -24 94 -12 45 15
124 99 105 111 -20 12 -59 10 -94 -5z"/>
<path d="M261 1189 l-24 -10 29 -31 c57 -60 147 -82 191 -46 16 13 -27 50 -88
78 -48 22 -72 24 -108 9z"/>
<path d="M2291 1180 c-62 -29 -104 -65 -88 -78 24 -19 74 -23 109 -9 43 18
112 77 101 88 -20 19 -79 19 -122 -1z"/>
<path d="M372 1049 c-29 -11 -24 -19 35 -58 56 -37 126 -43 163 -13 l22 18
-24 16 c-67 44 -143 59 -196 37z"/>
<path d="M2165 1047 c-16 -7 -46 -20 -64 -31 l-35 -19 23 -18 c15 -12 39 -19
68 -19 47 0 69 8 121 48 l33 26 -23 12 c-28 16 -83 16 -123 1z"/>
<path d="M521 928 c-34 -19 -30 -30 19 -55 61 -32 130 -31 167 1 l28 25 -40
17 c-52 22 -143 29 -174 12z"/>
<path d="M1976 917 l-49 -23 28 -22 c37 -30 106 -29 165 1 50 25 54 36 19 54
-38 20 -109 15 -163 -10z"/>
<path d="M1073 880 c3 -23 14 -51 24 -62 35 -40 143 -76 143 -48 0 19 -32 73
-54 92 -26 22 -63 43 -95 53 -23 7 -24 6 -18 -35z"/>
<path d="M704 839 c-17 -5 -39 -18 -49 -29 -18 -19 -17 -20 18 -35 66 -27 108
-28 157 -3 25 13 45 30 45 38 0 9 -17 19 -45 27 -54 14 -84 14 -126 2z"/>
<path d="M1831 837 c-25 -7 -46 -17 -48 -23 -2 -7 11 -22 29 -35 39 -28 112
-30 172 -5 38 16 38 17 21 36 -19 20 -75 40 -110 39 -11 0 -40 -6 -64 -12z"/>
<path d="M880 765 c-37 -17 -70 -43 -70 -56 0 -11 67 -29 108 -29 46 0 97 24
118 54 9 15 14 29 12 32 -3 2 -34 7 -69 10 -46 3 -74 0 -99 -11z"/>
<path d="M1638 773 c-32 -5 -34 -10 -13 -39 32 -47 110 -65 188 -43 32 9 36
13 27 29 -23 43 -112 67 -202 53z"/>
<path d="M1135 733 c-77 -16 -135 -56 -135 -93 0 -19 120 -12 165 10 34 16 75
62 75 84 0 7 -73 6 -105 -1z"/>
<path d="M1427 722 c14 -54 82 -92 167 -92 60 0 73 9 56 41 -16 30 -88 59
-164 66 -62 6 -65 5 -59 -15z"/>
<path d="M50 420 l0 -90 30 0 c28 0 30 3 30 35 0 19 4 35 10 35 5 0 16 -16 24
-35 13 -31 19 -35 50 -35 41 0 41 1 21 41 -14 27 -14 32 0 51 20 30 19 44 -5
68 -16 16 -33 20 -90 20 l-70 0 0 -90z"/>
<path d="M293 486 c-22 -19 -28 -32 -28 -66 0 -117 183 -125 202 -8 5 32 1 41
-25 68 -40 40 -106 43 -149 6z"/>
<path d="M531 484 c-25 -20 -31 -34 -31 -64 0 -54 43 -90 108 -90 59 0 67 6
76 53 7 36 6 37 -24 37 -27 0 -30 -3 -30 -30 0 -34 -19 -40 -44 -14 -19 19
-21 64 -3 88 7 10 29 19 48 21 46 4 46 4 29 15 -30 20 -97 11 -129 -16z"/>
<path d="M730 420 l0 -90 70 0 c56 0 70 3 70 15 0 11 -11 15 -40 15 -36 0 -40
3 -40 25 0 21 5 25 30 25 17 0 30 5 30 10 0 6 -14 10 -31 10 -27 0 -30 3 -27
28 3 23 8 27 41 30 65 5 40 22 -33 22 l-70 0 0 -90z"/>
<path d="M920 420 l0 -90 30 0 c28 0 30 3 30 35 0 19 4 35 10 35 5 0 16 -16
24 -35 13 -31 19 -35 50 -35 41 0 41 1 21 41 -14 27 -14 32 0 51 20 30 19 44
-5 68 -16 16 -33 20 -90 20 l-70 0 0 -90z"/>
<path d="M1275 485 c-41 -40 -29 -121 22 -144 13 -6 42 -11 64 -11 55 0 89 34
89 90 0 60 -33 90 -100 90 -41 0 -56 -5 -75 -25z"/>
<path d="M1570 420 l0 -90 34 0 c33 0 35 2 38 38 l3 37 20 -37 c17 -34 23 -38
57 -38 l38 0 -19 38 c-16 31 -17 39 -5 50 21 19 17 59 -8 76 -15 11 -45 16
-90 16 l-68 0 0 -90z"/>
<path d="M1815 485 c-18 -18 -25 -35 -25 -65 0 -66 49 -99 128 -87 47 8 72 38
72 89 0 58 -34 88 -100 88 -41 0 -56 -5 -75 -25z"/>
<path d="M2049 481 c-20 -20 -29 -39 -29 -61 0 -47 47 -90 98 -90 22 0 47 3
56 6 27 11 17 24 -17 24 -20 0 -41 8 -50 18 -18 19 -22 59 -9 78 13 19 48 33
70 27 25 -6 30 12 6 21 -9 3 -34 6 -56 6 -30 0 -46 -7 -69 -29z"/>
<path d="M2230 420 l0 -90 30 0 c28 0 30 2 30 40 0 38 2 40 30 40 28 0 30 -2
30 -40 0 -38 2 -40 30 -40 l30 0 0 90 0 90 -29 0 c-27 0 -30 -3 -33 -37 -3
-33 -6 -38 -28 -38 -22 0 -25 5 -28 38 -3 34 -6 37 -33 37 l-29 0 0 -90z"/>
<path d="M2506 482 c4 -21 -3 -47 -25 -90 -23 -45 -27 -62 -17 -62 8 0 16 7
20 15 3 10 19 15 45 15 25 0 41 -5 45 -15 5 -14 76 -23 76 -10 0 3 -19 43 -42
90 -40 81 -44 85 -75 85 -30 0 -32 -2 -27 -28z"/>
</g>
</svg>
